<?xml version="1.0" encoding="UTF-8" standalone="no"?>
<svg
   xmlns:dc="http://purl.org/dc/elements/1.1/"
   xmlns:cc="http://creativecommons.org/ns#"
   xmlns:rdf="http://www.w3.org/1999/02/22-rdf-syntax-ns#"
   xmlns:svg="http://www.w3.org/2000/svg"
   xmlns="http://www.w3.org/2000/svg"
   xmlns:sodipodi="http://sodipodi.sourceforge.net/DTD/sodipodi-0.dtd"
   xmlns:inkscape="http://www.inkscape.org/namespaces/inkscape"
   version="1.1"
   id="svg10"
   width="706.44586"
   height="730.81537"
   viewBox="0 0 706.44586 730.81537"
   sodipodi:docname="drizzle logo.svg"
   inkscape:version="1.0.1 (3bc2e813f5, 2020-09-07)">
  <metadata
     id="metadata16">
    <rdf:RDF>
      <cc:Work
         rdf:about="">
        <dc:format>image/svg+xml</dc:format>
        <dc:type
           rdf:resource="http://purl.org/dc/dcmitype/StillImage" />
        <dc:title></dc:title>
      </cc:Work>
    </rdf:RDF>
  </metadata>
  <defs
     id="defs14">
    <clipPath
       clipPathUnits="userSpaceOnUse"
       id="clipPath1070">
      <rect
         style="fill:#3282b8;fill-opacity:0.176229;stroke-width:1.46675"
         id="rect1072"
         width="733.37836"
         height="733.37836"
         x="60.993488"
         y="90.637886" />
    </clipPath>
  </defs>
  <sodipodi:namedview
     pagecolor="#ffffff"
     bordercolor="#666666"
     borderopacity="1"
     objecttolerance="10"
     gridtolerance="10"
     guidetolerance="10"
     inkscape:pageopacity="0"
     inkscape:pageshadow="2"
     inkscape:window-width="2560"
     inkscape:window-height="1346"
     id="namedview12"
     showgrid="false"
     inkscape:lockguides="true"
     inkscape:zoom="1"
     inkscape:cx="283.15861"
     inkscape:cy="355.03123"
     inkscape:window-x="-11"
     inkscape:window-y="-11"
     inkscape:window-maximized="1"
     inkscape:current-layer="g18"
     inkscape:document-rotation="0"
     fit-margin-top="0"
     fit-margin-left="0"
     fit-margin-right="0"
     fit-margin-bottom="0" />
  <g
     inkscape:groupmode="layer"
     inkscape:label="Image"
     id="g18"
     transform="translate(-74.335946,-93.067511)">
    <path
       id="path1084"
       style="fill:#0c3b5a;fill-opacity:1"
       d="m 341.3457,93.068359 c -11.72113,-0.02354 -23.56396,0.442803 -30.81445,1.408203 -37.95219,5.053201 -73.84533,23.110738 -100.67187,50.648438 -17.88524,18.3593 -29.36995,35.44029 -37.79493,56.21289 l -3.16406,7.80078 -10.51172,4.28321 c -30.68826,12.5067 -54.81146,34.4591 -69.683592,63.4121 -10.2638,19.9815 -14.550311,38.14493 -14.363281,60.85743 0.13769,16.7195 2.058537,29.03466 6.710937,43.00586 10.15538,30.4969 30.848386,56.11816 58.791016,72.79296 14.59465,8.7094 33.52755,15.47091 48.57227,17.34961 l 5.63671,0.70508 0.5,73.9961 c 0.44981,66.5685 0.66649,74.29719 2.16407,76.99609 2.48453,4.4775 8.08695,9.464 12.46093,11.0918 h -0.006 c 7.70569,2.8678 19.57165,0.14876 25.06445,-5.74414 1.20336,-1.291 3.1045,-4.37266 4.22656,-6.84766 1.99247,-4.3949 2.041,-6.1882 2.0625,-76.75 l 0.0215,-72.25 h 29 29 l 0.0449,50.75 c 0.0478,55.2681 -0.003,54.7257 5.83398,62.0957 4.24149,5.3554 10.23863,8.1543 17.4707,8.1543 7.19743,0 11.07295,-1.62483 16.23243,-6.80273 7.38655,-7.4129 7.41797,-7.68681 7.41797,-64.15821 v -49.73242 l 12.1582,-0.6543 c 6.68635,-0.3595 19.73635,-0.65234 29,-0.65234 h 16.8418 l 1.69726,50.13477 c 0.81718,61.8822 0.94957,58.39539 22.48438,60.6875 24.1456,-1.9165 24.07435,-1.03484 22.5957,-60.39454 l 0.27734,-50.42773 h 29.47266 29.47266 v 23.03125 c 0,25.0626 0.45669,27.67585 5.80468,33.31055 4.42199,4.6592 9.85665,6.9082 16.69532,6.9082 9.65585,0 17.2818,-4.9554 21.1582,-13.75 1.4701,-3.3354 1.82744,-7.7803 2.14844,-26.75 l 0.38476,-22.75 h 7.74219 c 4.2591,0 17.26755,-0.29766 28.90625,-0.66016 l 21.16016,-0.6582 0.0117,52.4082 c 0.003,32.0721 0.80312,53.74191 1.01172,56.03321 0.5384,5.9148 2.75811,14.11427 13.44141,15.70507 4.5093,0.6715 13.09631,1.30188 18.59961,0.20118 4.4933,-0.8986 9.27771,-0.36814 12.63281,-12.42774 2.9194,-16.7147 0.91073,-40.53826 1.29883,-58.85156 l 0.0156,-51.24219 11.74414,-1.0332 c 29.62761,-4.77745 26.5428,-4.52068 35.25,-7.42578 13.7485,-4.5872 29.79043,-14.18055 40.86133,-24.43555 5.466,-5.0632 13.49375,-15.54528 18.46485,-24.11328 9.2402,-15.9262 13.84734,-32.9931 13.90234,-51.5 0.092,-31.1984 -11.02112,-58.04563 -32.60352,-78.76563 -20.344,-19.531 -42.05985,-28.73689 -70.97265,-30.08789 l -13.84766,-0.64648 -3.23047,-8.01758 c -8.536,-21.1804 -19.98312,-38.06146 -36.32422,-53.56836 -11.6794,-11.0832 -21.666,-18.05196 -35.75,-24.94336 -17.7341,-8.6773 -34.34181,-13.22927 -55,-15.07617 -11.84648,-1.0591 -20.12511,-0.66499 -36.30468,1.72461 l -10.30469,1.52148 -7.69922,-7.82421 c -27.64839,-28.0979 -65.2186,-46.56491 -107.32031,-52.753911 -6.75869,-0.99355 -18.357,-1.507712 -30.07813,-1.53125 z m -7.92773,43.115231 c 3.43816,-0.0218 7.22197,0.0333 11.49219,0.14844 21.73419,0.586 29.20263,1.80834 46.53515,7.61524 28.00695,9.3832 51.21046,27.66394 70.56055,55.58984 2.6677,3.85 5.15911,7.35306 5.53516,7.78516 0.37605,0.4321 6.04478,-1.21657 12.59765,-3.66407 15.58297,-5.8202 22.48598,-7.53838 34.47852,-8.58008 40.23752,-3.4951 79.24261,19.78638 97.41211,58.14258 5.3824,11.3623 8.55577,22.8349 11.54687,41.7461 2.1312,13.474 2.36914,14.22262 4.36524,13.76562 1.1611,-0.2659 8.86132,-2.86715 17.11132,-5.78125 13.1776,-4.6547 16.16074,-5.34894 24.55274,-5.71484 33.5287,-1.4623 61.23488,24.65122 63.64258,59.98242 1.9292,28.3091 -14.89421,54.94984 -40.78711,64.58984 -12.858,4.787 -18.79321,5.09112 -110.40821,5.66602 -142.07519,0.8911 -383.82506,1.47414 -386.5,0.93164 -5.39052,-1.0932 -16.0911,-4.51931 -21.28515,-6.81641 -23.57501,-10.426 -42.53646,-33.46598 -49.83594,-60.55468 -3.29609,-12.2321 -3.32354,-33.80895 -0.0586,-45.99805 4.6638,-17.4114 14.69702,-33.98937 27.63672,-45.66797 12.5494,-11.3263 26.31937,-17.99854 44.81445,-21.71484 l 10.99609,-2.21094 3.38086,-12.36914 c 11.74659,-42.9725 44.12621,-77.43736 85.35156,-90.84766 13.54323,-4.40553 21.96652,-5.9484 36.86524,-6.04297 z" />
    <path
       style="fill:#3282b8;fill-opacity:1"
       d="m 525.38884,663.69991 c -18.67158,-7.9273 -15.62121,-34.3572 -15.83625,-49.6607 -0.275,-18.9764 -0.16654,-37.1064 0.24102,-40.2889 0.93447,-7.2968 3.79582,-12.2988 9.57199,-16.733 7.76731,-4.7099 18.63074,-5.8725 25.48598,-0.7018 10.6536,8.1259 11.6593,12.6304 11.6593,52.2211 0,33.2537 -0.3344,40.8483 -5.0306,47.6249 -5.5156,7.959 -17.51973,10.7397 -26.09144,7.5384 z"
       id="path1082" />
    <path
       style="fill:#3282b8;fill-opacity:1"
       d="m 415.55973,684.44361 c -4.54331,-1.9702 -7.7462,-5.0186 -10.10446,-9.6171 -1.7132,-3.3407 -1.90268,-6.0831 -1.90268,-27.5382 0,-22.7389 0.10283,-24.0292 2.25,-28.2318 1.2375,-2.4222 3.97927,-5.78 6.09282,-7.4619 7.88286,-4.4912 23.8729,-5.0962 30.31436,0 2.11355,1.6819 4.85532,5.0397 6.09282,7.4619 2.14717,4.2026 2.25,5.4929 2.25,28.2318 0,21.4551 -0.18948,24.1975 -1.90268,27.5382 -4.15023,8.0928 -8.87609,10.8294 -20.41644,10.7713 -4.66354,-0.024 -10.5806,-0.2465 -12.67374,-1.1542 z"
       id="path1080" />
    <path
       style="fill:#3282b8;fill-opacity:1"
       d="m 627.74798,718.90431 c -4.9519,-2.4511 -10.7487,-9.4952 -12.176,-14.7958 -0.5391,-2.0019 -1.0112,-17.2789 -1.0492,-33.949 -0.079,-34.5792 0.3309,-37.1007 7.1725,-44.1505 4.9571,-5.108 9.238,-6.9724 16.0094,-6.9724 6.9066,0 13.0378,3.0591 17.2881,8.6256 5.4964,7.1983 6.061,11.3402 6.0495,44.3744 -0.011,32.4295 -0.089,32.9181 -6.4972,41.0095 -6.1402,7.7525 -17.8142,10.3046 -26.7971,5.8582 z"
       id="path1078" />
    <path
       style="fill:#3282b8;fill-opacity:1"
       d="m 206.05259,784.19871 c -4.66658,-2.2282 -9.07078,-6.3408 -9.77217,-10.4882 -5.44863,-32.2187 -2.18185,-103.3495 -0.73582,-107.1528 1.82768,-4.8072 5.03181,-8.4926 9.25809,-10.6487 3.55244,-1.8123 5.46584,-2.0349 14.75734,-1.7169 9.86631,0.3377 10.95374,0.5775 14.34335,3.1629 2.01723,1.5386 4.67603,4.6839 5.90845,6.9895 2.2181,4.1497 2.24385,4.6766 2.54471,52.077 0.31842,50.1648 -0.0216,55.3885 -3.98102,61.168 -4.10905,5.9979 -8.29385,7.818 -18.82292,8.1865 -7.76313,0.2717 -10.23131,-0.017 -13.5,-1.5773 z"
       id="path1076" />
    <path
       style="fill:#3282b8;fill-opacity:1"
       d="m 514.2165,817.84041 c -5.73174,-7.5147 -5.63073,-6.4346 -5.68249,-60.7676 -0.0448,-47.0005 1.22894,-50.0304 1.84109,-54.3678 1.64684,-11.6687 13.56385,-14.8577 24.23025,-14.4325 8.30275,0.331 15.03253,2.4621 17.44723,11.2834 2.9156,17.8441 3,40.952 3,57.4815 v 52.6567 c -0.2835,17.5273 -33.27085,17.03 -40.83608,8.1463 z"
       id="path22" />
    <rect
       style="opacity:1;fill:#0c3b5a;fill-opacity:1;stroke-width:1.00181"
       id="rect1251"
       width="466.50543"
       height="42.863171"
       x="194.0526"
       y="428.68143" />
    <path
       style="opacity:1;fill:#3282b8;fill-opacity:1;stroke-width:0.5"
       d="m 210.02409,633.99854 c -3.27529,-1.25594 -6.97821,-3.60425 -9.92043,-6.87853 -3.52898,-3.92725 -4.20368,-4.50765 -4.84353,-15.00951 -0.38368,-6.29741 -0.86519,-112.57811 -1.17333,-137.76924 l -0.0342,-2.79665 23.20782,0.39865 23.28729,0.0935 -0.0204,66.78928 c -0.0134,43.86472 0.14033,61.68678 -0.47171,73.32929 -0.3184,6.05659 0.12057,5.70598 -2.25341,10.24786 -2.38327,4.55966 -4.79715,7.68151 -9.67325,9.82188 -7.96458,3.09591 -12.02304,3.27044 -18.10485,1.77347 z"
       id="path1255"
       sodipodi:nodetypes="cssscccssscc" />
    <path
       style="opacity:1;fill:#3282b8;fill-opacity:1;stroke-width:0.5"
       d="m 317.09133,592.76459 c -6.30427,-1.02414 -13.24659,-6.65249 -15.97929,-12.65104 -2.15007,-4.71963 -1.96733,-8.36285 -2.21779,-59.52248 l -0.23805,-48.62506 23.33506,0.006 23.55645,0.3721 -0.0327,48.52096 c -0.0233,34.6728 0.0771,38.44222 -0.943,52.62105 -0.39218,5.45105 -1.00381,8.0566 -6.84459,13.16667 -6.5059,6.53525 -12.19682,6.83366 -20.63613,6.1118 z"
       id="path1257"
       sodipodi:nodetypes="csscccsscc" />
    <path
       style="opacity:1;fill:#3282b8;fill-opacity:1;stroke-width:0.5"
       d="m 406.74375,567.219 c -1.98282,-29.7192 -2.76774,-72.43503 -3.17422,-95.62421 l 23.59214,0.0117 23.44249,-0.0431 -0.16188,34.56973 c -0.0879,18.76866 0.70162,39.49901 0.66312,45.824 -0.1331,21.82519 -2.74926,26.91807 -12.29289,28.9653 -25.86985,4.57808 -30.50757,-2.79055 -32.06876,-13.7035 z"
       id="path1259"
       sodipodi:nodetypes="ccccsccc" />
    <path
       style="opacity:1;fill:#3282b8;fill-opacity:1;stroke-width:0.5"
       d="m 525.56024,533.57717 c -5.32474,-1.42621 -11.54504,-6.10382 -13.68287,-10.61218 -1.66566,-3.5126 -2.3028,-7.28432 -2.32416,-28.99133 l -0.0221,-22.40854 c 21.80176,-0.0686 22.45078,-0.0101 32.89093,-0.032 l 13.33214,0.0102 -0.30514,19.76198 c -0.36424,23.59043 -0.87125,26.84349 -2.77314,30.79756 -1.64768,3.42558 -6.33746,8.1624 -9.45184,9.85635 -5.83834,2.57622 -13.58588,3.09574 -17.66386,1.61801 z"
       id="path1261"
       sodipodi:nodetypes="csscccsscc" />
    <path
       style="opacity:1;fill:#3282b8;fill-opacity:1;stroke-width:0.5"
       d="m 615.08263,581.7371 c -0.86329,-4.22076 -2.00855,-23.6698 -1.32093,-75.55933 l -10e-4,-34.625 23.25,0.006 23.25,0.006 0.11464,37.62503 c 0.17683,58.03538 2.82238,67.46273 -0.80983,75.27063 -1.76946,5.36144 -4.4434,8.17732 -10.83081,9.44142 -13.65306,1.74175 -31.74939,2.21015 -33.65207,-12.16475 z"
       id="path1263"
       sodipodi:nodetypes="cccccsccc" />
    <path
       style="opacity:1;fill:#3282b8;fill-opacity:1"
       id="path1283"
       d="m 194.14421,472.00804 c 0.0162,-2.1e-4 0.0324,-1.4e-4 0.0485,-9e-5 0.0129,4e-5 0.0257,4e-5 0.0386,7e-5 0.0281,5.8e-4 0.0403,-0.0157 0.069,-0.0323 0,0 -0.0541,0.0212 -0.0541,0.0212 v 0 c 0.0157,-0.009 0.0313,-0.0177 0.047,-0.0266 -0.004,0.002 -0.005,0.003 -0.009,0.004 -0.002,2.4e-4 -0.004,0 -0.006,0 -0.0129,1e-5 -0.0258,1e-5 -0.0387,4e-5 -0.0161,4e-5 -0.0322,1.1e-4 -0.0482,-1.1e-4 0,0 -0.047,0.0341 -0.047,0.0341 z" />
    <path
       style="opacity:1;fill:#3282b8;fill-opacity:1"
       id="path1285"
       d="m 194.06316,471.98454 c 0.019,-2.4e-4 0.038,-1.6e-4 0.057,-9e-5 0.0134,2.9e-4 0.0268,-3.6e-4 0.0402,3.9e-4 0.0102,10e-4 0.0204,0.003 0.0306,0.003 0.0115,5.2e-4 0.0229,5.5e-4 0.0344,5.7e-4 0.006,1e-5 0.0117,0 0.0175,1e-5 0,0 0.0468,-0.034 0.0468,-0.034 v 0 c -0.006,10e-6 -0.0117,10e-6 -0.0175,10e-6 -0.0114,-2e-5 -0.0228,0 -0.0342,-3.8e-4 -0.0102,-4.3e-4 -0.0204,-10e-4 -0.0305,-0.003 -0.0135,-0.002 -0.0272,-1.5e-4 -0.0408,-5.7e-4 -0.0189,7e-5 -0.0378,1.4e-4 -0.0567,-1.2e-4 0,0 -0.0469,0.034 -0.0469,0.034 z" />
    <path
       style="opacity:1;fill:#3282b8;fill-opacity:1"
       id="path1289"
       d="m 194.05486,471.99237 c 0.0168,-2.2e-4 0.0336,-9e-5 0.0504,-9e-5 0.0145,3.7e-4 0.029,-10e-4 0.0435,-0.003 0.0119,-8.9e-4 0.0238,-0.001 0.0358,-0.001 0.0117,-7e-5 0.0234,-5e-5 0.0351,-3e-5 0.0117,1e-5 0.0234,1e-5 0.0351,3e-5 0.008,-10e-6 0.004,-10e-6 0.0117,0 0,0 0.0468,-0.034 0.0468,-0.034 v 0 c -0.008,0 -0.004,1e-5 -0.0117,0 -0.0117,0 -0.0234,-10e-6 -0.0351,-3e-5 -0.0117,0 -0.0234,-4e-5 -0.0351,0 -0.012,7e-5 -0.0241,1.6e-4 -0.0361,9.2e-4 -0.0145,10e-4 -0.0289,0.003 -0.0434,0.003 -0.0167,-2e-5 -0.0334,1.1e-4 -0.0501,-1.2e-4 0,0 -0.0469,0.0341 -0.0469,0.0341 z" />
    <path
       style="opacity:1;fill:#3282b8;fill-opacity:1"
       id="path1291"
       d="m 194.22625,471.97681 c 0.002,-10e-6 0.004,-5e-5 0.006,-4e-5 9e-4,0 0.007,4.4e-4 0.008,1.9e-4 0.0457,-0.0351 0.0626,-0.0344 0.0401,-0.0343 -0.0164,2e-4 -0.0328,1.9e-4 -0.0492,1.5e-4 -0.014,-4e-5 -0.0281,-7e-5 -0.0421,-1e-4 -0.0118,-2e-5 -0.0236,-10e-6 -0.0355,-2e-5 -0.0117,-1e-5 -0.0234,0 -0.0351,-1e-5 -0.002,0 -0.004,0 -0.006,0 0,0 -0.0468,0.034 -0.0468,0.034 v 0 c 0.002,0 0.004,1e-5 0.006,1e-5 0.0117,-1e-5 0.0234,10e-6 0.0351,10e-6 0.0118,-10e-6 0.0237,0 0.0355,0 0.0141,-3e-5 0.0282,-5e-5 0.0424,-8e-5 0.0162,-3e-5 0.0325,-4e-5 0.0488,1.8e-4 0.0242,1.6e-4 0.003,7.6e-4 0.0543,-0.0343 0.001,-6.8e-4 -0.002,1.2e-4 -0.004,1.4e-4 -0.002,2e-5 -0.003,5e-5 -0.005,5e-5 -0.002,0 -0.004,-3e-5 -0.006,-5e-5 0,0 -0.047,0.0341 -0.047,0.0341 z" />
    <path
       style="opacity:1;fill:#3282b8;fill-opacity:1"
       id="path1293"
       d="m 194.05573,471.97781 c 0.002,0.0184 0.003,0.0369 0.003,0.0553 2e-5,0.002 6e-5,0.005 8e-5,0.007 1e-5,0.002 1e-5,0.003 0,0.005 -2e-5,0.002 -2.2e-4,0.004 2.7e-4,0.003 0.0523,-0.031 0.0545,-0.0118 0.0503,-0.0353 -0.002,-0.01 -0.002,-0.0197 -0.002,-0.0296 7e-4,-0.006 -0.003,-0.0214 0.002,-0.0261 0.001,-10e-4 0.003,-10e-4 0.004,-0.002 -0.0789,0.0454 -0.0519,0.0262 -0.0302,0.0229 0.007,-10e-4 0.0146,-10e-4 0.022,-0.002 0.0127,-2.9e-4 0.0253,-10e-5 0.038,-2e-5 0.0118,-5.1e-4 0.0234,10e-4 0.0351,0.002 0.0117,0.001 0.0235,0.002 0.0353,0.002 0.0117,1.4e-4 0.0234,1.3e-4 0.0352,1.1e-4 0.0117,-10e-6 0.0234,0 0.0352,-10e-6 0.002,-9e-5 0.004,-1.8e-4 0.006,-2.7e-4 0,0 0.0466,-0.0344 0.0466,-0.0344 v 0 c -0.002,2.2e-4 -0.004,4.4e-4 -0.006,6.6e-4 -0.0117,-10e-6 -0.0234,0 -0.0352,1e-5 -0.0117,-1e-5 -0.0234,3e-5 -0.0351,-5e-5 -0.0117,-1.3e-4 -0.0233,-2.8e-4 -0.035,-10e-4 -0.0118,-0.001 -0.0235,-0.003 -0.0354,-0.003 -0.0127,-9e-5 -0.0255,-2.3e-4 -0.0382,-8e-5 -0.007,1.6e-4 -0.0321,6.3e-4 -0.0372,0.003 -0.0187,0.01 -0.0366,0.0209 -0.0549,0.0314 -0.001,0.002 -0.002,0.003 -0.003,0.005 -0.004,0.008 -3.2e-4,0.0191 -0.001,0.028 3.8e-4,0.0102 8.9e-4,0.0203 0.003,0.0304 1.8e-4,10e-4 -6e-4,0.004 5.6e-4,0.004 0.0177,-0.007 0.0345,-0.0161 0.0518,-0.0239 2.2e-4,-10e-5 2.4e-4,9e-4 2.4e-4,6.6e-4 6e-5,-0.002 -3.4e-4,-0.005 -4.5e-4,-0.007 -1.1e-4,-0.002 -1.9e-4,-0.005 -2.9e-4,-0.007 -6.5e-4,-0.0187 -0.002,-0.0373 -0.003,-0.0559 0,0 -0.0514,0.0269 -0.0514,0.0269 z" />
    <path
       style="opacity:1;fill:#3282b8;fill-opacity:1"
       id="path1297"
       d="m 194.06219,471.97676 c 0.0201,-0.001 0.0403,-0.003 0.0605,-0.003 0.0171,-5.7e-4 0.0341,-6.8e-4 0.0512,-7.2e-4 0.0133,10e-6 0.0266,6e-5 0.0399,7e-5 0.0108,-3.3e-4 0.0214,7e-5 0.0321,0.002 0.008,0.001 0.0174,0.002 0.0249,0.006 1.2e-4,2.3e-4 5.7e-4,8.2e-4 3.5e-4,7e-4 -0.0163,-0.009 0.0303,-0.0209 0.0459,-0.0309 8.3e-4,-5.3e-4 -0.002,5.4e-4 -0.003,6.6e-4 -0.004,4.7e-4 -0.005,1.6e-4 -0.009,-2.6e-4 -0.0113,-0.003 -0.0228,-0.005 -0.0345,-0.007 -0.002,-1.6e-4 -0.004,-3.3e-4 -0.006,-4.8e-4 -0.001,-9e-5 -0.008,-10e-4 -0.008,-6.4e-4 -0.0465,0.0349 -0.063,0.0345 -0.0404,0.034 0.0108,-1e-4 0.0217,-5e-5 0.0325,-4e-5 0.0236,3.1e-4 0.0125,0.001 0.0485,-0.034 0.002,-0.002 -0.005,9e-5 -0.007,4e-5 -0.006,-1.1e-4 -0.008,-3.7e-4 -0.0145,-8.8e-4 -0.0133,-0.001 -0.0267,-0.002 -0.04,-0.003 -0.0119,-3.5e-4 -0.0237,-3.5e-4 -0.0356,-3.7e-4 -0.0117,-10e-6 -0.0234,2e-5 -0.0351,10e-6 -0.0117,0 -0.0234,1e-5 -0.0351,-10e-6 -0.002,10e-6 -0.004,10e-6 -0.006,10e-6 0,0 -0.0468,0.034 -0.0468,0.034 v 0 c 0.002,0 0.004,0 0.006,10e-6 0.0117,-10e-6 0.0234,0 0.0352,0 0.0117,-10e-6 0.0234,-10e-6 0.0351,-10e-6 0.0118,-2e-5 0.0237,-2e-5 0.0355,2e-4 0.0134,3.4e-4 0.0267,9.9e-4 0.04,0.002 0.003,3e-4 0.0191,0.003 0.0214,0.001 0.0715,-0.0412 0.0711,-0.034 0.0452,-0.034 -0.0108,-4e-5 -0.0216,-5e-5 -0.0323,-1.4e-4 -0.0241,-2.8e-4 -0.004,-8e-4 -0.0543,0.0341 -1.6e-4,1.1e-4 6.7e-4,10e-5 0.004,2.3e-4 0.002,7e-5 0.003,1.2e-4 0.005,2e-4 0.002,10e-5 0.004,2.3e-4 0.006,3.4e-4 0.0115,0.001 0.023,0.003 0.034,0.006 0.002,5.1e-4 0.003,10e-4 0.005,0.002 0.0225,0.004 0.0726,-0.0138 0.0567,-0.0364 -0.008,-0.005 -0.0171,-0.007 -0.0264,-0.008 -0.0109,-0.002 -0.0216,-0.003 -0.0327,-0.002 -0.0134,-1e-5 -0.0267,0 -0.0401,5e-5 -0.0172,5e-5 -0.0343,6e-5 -0.0515,6.9e-4 -0.02,7.4e-4 -0.0399,0.002 -0.0598,0.003 0,0 -0.047,0.0341 -0.047,0.0341 z" />
  </g>
</svg>
